<svg xmlns="http://www.w3.org/2000/svg" viewBox="0 0 14 12.6">
  <path id="calendar-alt" class="cls-1" d="M6.3,1.4V.7A.7.7,0,0,1,7.7.7v.7H9.8V.7a.7.7,0,1,1,1.4,0v.7h.7A2.1,2.1,0,0,1,14,3.5v7a2.1,2.1,0,0,1-2.1,2.1H2.1A2.1,2.1,0,0,1,0,10.5v-7A2.1,2.1,0,0,1,2.1,1.4h.7V.7A.7.7,0,1,1,4.2.7v.7Zm0,1.4H4.2v.7a.7.7,0,0,1-1.4,0V2.8H2.1a.7.7,0,0,0-.7.7v7a.7.7,0,0,0,.7.7h9.8a.7.7,0,0,0,.7-.7v-7a.7.7,0,0,0-.7-.7h-.7v.7a.7.7,0,0,1-1.4,0V2.8H7.7v.7a.7.7,0,0,1-1.4,0ZM2.1,5.6H3.5V7H2.1Zm0,2.8H3.5V9.8H2.1Zm8.4,0h1.4V9.8H10.5Zm0-2.8h1.4V7H10.5Zm-5.6,0H6.3V7H4.9Zm2.8,0H9.1V7H7.7Zm0,2.8H9.1V9.8H7.7Zm-2.8,0H6.3V9.8H4.9Z"/>
</svg>
