<svg xmlns="http://www.w3.org/2000/svg" viewBox="0 0 14 12.757">
  <defs>
    <style>
      .cls-1 {
        fill: #c7cfd6;
      }
    </style>
  </defs>
  <path id="messages" class="cls-1" d="M2.559,12.585A.7.7,0,0,1,1.4,12.07V10.5A1.4,1.4,0,0,1,0,9.1V4.2A1.4,1.4,0,0,1,1.4,2.8H9.1a1.4,1.4,0,0,1,1.4,1.4V9.1a1.4,1.4,0,0,1-1.4,1.4H5.6L2.559,12.585ZM3.15,10.42a.375.375,0,0,0,.182-.048L4.981,9.225a.7.7,0,0,1,.4-.125H8.4a.7.7,0,0,0,.7-.7V4.9a.7.7,0,0,0-.7-.7H2.1a.7.7,0,0,0-.7.7V8.4a.705.705,0,0,0,.7.7.913.913,0,0,1,.591.158c.09.094.094.252.109.553,0,.044,0,.124,0,.259A.35.35,0,0,0,3.15,10.42ZM11.2,7.011q0,.129,0,.259V7.011c.014-.3.02-.459.109-.553A.913.913,0,0,1,11.9,6.3a.705.705,0,0,0,.7-.7V2.1a.7.7,0,0,0-.7-.7H5.6a.7.7,0,0,0-.7.7H3.5V1.4A1.4,1.4,0,0,1,4.9,0h7.7A1.4,1.4,0,0,1,14,1.4V6.3a1.4,1.4,0,0,1-1.4,1.4V9.27a.7.7,0,0,1-1.159.515L11.2,9.62V7.012Z"/>
</svg>
