<svg xmlns="http://www.w3.org/2000/svg" viewBox="0 0 14 13.499">
  <path id="station" class="cls-1" d="M4.845,10.714a4.2,4.2,0,0,1,.07-7.253.141.141,0,0,1,.071-.021.7.7,0,0,1,.524,1.3,2.8,2.8,0,0,0,.09,4.8h0a.7.7,0,0,1-.692,1.214l-.022-.011-.008,0-.032-.018Zm4.372-.039a.7.7,0,1,1-.764-1.168.068.068,0,0,1,.016-.016A2.8,2.8,0,0,0,8.4,4.682h0a.7.7,0,1,1,.762-1.175,4.2,4.2,0,0,1,.055,7.169ZM7,8.508a1.4,1.4,0,1,1,1.4-1.4A1.4,1.4,0,0,1,7,8.508Zm1.931,5.326a.7.7,0,0,1-.288-1.371A5.6,5.6,0,0,0,8.606,1.741a.076.076,0,0,1-.021-.011A.7.7,0,1,1,9.059.416a7,7,0,0,1-.09,13.412A.146.146,0,0,1,8.931,13.833ZM5,13.818A7,7,0,0,1,4.984.4a.694.694,0,0,1,.07-.021H5.06a.7.7,0,0,1,.346,1.358,5.6,5.6,0,0,0,.009,10.743A.7.7,0,1,1,5,13.818Z" transform="translate(0 -0.358)"/>
</svg>
