<svg xmlns="http://www.w3.org/2000/svg" viewBox="0 0 14 14.7">
  <path id="users" class="cls-1" d="M2.474,7.749a.7.7,0,1,1,.513,1.3A2.505,2.505,0,0,0,1.4,11.382V12.6a.7.7,0,0,0,.7.7H7.7a.7.7,0,0,0,.7-.7V11.447A2.561,2.561,0,0,0,6.75,9.054a.7.7,0,1,1,.5-1.307,3.961,3.961,0,0,1,2.551,3.7V12.6a2.1,2.1,0,0,1-2.1,2.1H2.1A2.1,2.1,0,0,1,0,12.6V11.382A3.905,3.905,0,0,1,2.473,7.749ZM4.9.7A2.8,2.8,0,0,1,7.7,3.5V4.9a2.8,2.8,0,0,1-5.6,0V3.5A2.8,2.8,0,0,1,4.9.7Zm0,1.4A1.4,1.4,0,0,0,3.5,3.5V4.9a1.4,1.4,0,0,0,2.8,0V3.5A1.4,1.4,0,0,0,4.9,2.1ZM11.2,14a.7.7,0,0,1,0-1.4h.7a.7.7,0,0,0,.7-.7V10.613a2.371,2.371,0,0,0-1.621-2.249.7.7,0,1,1,.442-1.329A3.771,3.771,0,0,1,14,10.613V11.9A2.1,2.1,0,0,1,11.9,14ZM9.1,1.4A.7.7,0,0,1,9.1,0a2.8,2.8,0,0,1,2.8,2.8V4.2A2.8,2.8,0,0,1,9.1,7a.7.7,0,0,1,0-1.4,1.4,1.4,0,0,0,1.4-1.4V2.8A1.4,1.4,0,0,0,9.1,1.4Z"/>
</svg>
