<svg xmlns="http://www.w3.org/2000/svg" viewBox="0 0 14 12.727">
  <defs>
    <style>
      .cls-1 {
        fill: #c7cfd6;
      }
    </style>
  </defs>
  <path id="robot" class="cls-1" d="M8,2a1.272,1.272,0,0,1,.636,2.374v.808h.636a4.455,4.455,0,0,1,4.455,4.455h.636a.636.636,0,0,1,.636.636v1.909a.636.636,0,0,1-.636.636h-.636v.636a1.273,1.273,0,0,1-1.273,1.273H3.545a1.273,1.273,0,0,1-1.273-1.273v-.636H1.636A.636.636,0,0,1,1,12.182V10.273a.636.636,0,0,1,.636-.636h.636A4.455,4.455,0,0,1,6.727,5.182h.636V4.374A1.272,1.272,0,0,1,8,2M5.136,9a1.591,1.591,0,1,0,1.591,1.591A1.591,1.591,0,0,0,5.136,9m5.727,0a1.591,1.591,0,1,0,1.591,1.591A1.591,1.591,0,0,0,10.864,9Z" transform="translate(-1 -2)"/>
</svg>
